<svg width="18" height="22" viewBox="0 0 18 22" fill="none" xmlns="http://www.w3.org/2000/svg">
<path d="M17.3507 20.3444C17.4425 20.4552 17.4849 20.5991 17.4669 20.7425C17.4488 20.8879 17.3704 21.0191 17.2506 21.1038M17.3507 20.3444L15.55 4.319C14.7133 3.12871 13.5775 2.17975 12.2573 1.56786C10.9371 0.955935 9.47899 0.702671 8.02987 0.833586C6.58066 0.96434 5.1914 1.47468 4.00207 2.31319L4.00192 2.3133C0.272265 4.94814 -0.616722 10.1349 2.01982 13.8754C2.64502 14.768 3.44094 15.5279 4.36157 16.1112L4.36159 16.1113C5.28227 16.6945 6.30937 17.0897 7.38356 17.2739C7.85706 17.3561 8.3366 17.3974 8.81701 17.3976H8.81707C10.343 17.3976 11.8371 16.9719 13.1323 16.1699L16.5027 20.9494M17.3507 20.3444L13.9846 15.5672M17.3507 20.3444L13.9846 15.5672M17.2506 21.1038L17.1351 20.9406L17.251 21.1036C17.2509 21.1037 17.2508 21.1037 17.2506 21.1038ZM17.2506 21.1038C17.1311 21.1887 16.9815 21.219 16.8387 21.1883L16.8385 21.1883C16.6983 21.1579 16.577 21.0714 16.5027 20.9494M16.5027 20.9494L16.507 20.9556L16.6705 20.8403L16.4978 20.9413C16.4994 20.944 16.5011 20.9467 16.5027 20.9494ZM13.9846 15.5672C17.3612 12.8503 18.0858 7.91658 15.5501 4.31922L13.9846 15.5672ZM7.60427 16.2515L7.60393 16.2512L7.56061 16.2438C6.62181 16.083 5.72416 15.7378 4.91962 15.228C4.11507 14.7182 3.41955 14.0541 2.87325 13.2739L2.87288 13.2734C0.566929 10.0027 1.34444 5.46783 4.604 3.16527L4.6044 3.16499C5.81692 2.30403 7.26732 1.84177 8.75455 1.84248H8.75458C9.17521 1.84262 9.59489 1.87903 10.0093 1.95115L10.0098 1.95124C10.9486 2.11221 11.8461 2.45752 12.6507 2.96729C13.4552 3.47708 14.1507 4.14111 14.6972 4.92116L14.6975 4.92164C17.0031 8.19228 16.226 12.7268 12.9668 15.029L12.9191 15.0627C12.1555 15.5959 11.2953 15.9753 10.3862 16.1796L10.3862 16.1796C9.47237 16.3851 8.52727 16.4094 7.60427 16.2515Z" fill="white" stroke="white" stroke-width="0.4"/>
</svg>
