<svg width="12" height="11" viewBox="0 0 12 11" fill="none" xmlns="http://www.w3.org/2000/svg">
<path fill-rule="evenodd" clip-rule="evenodd" d="M10.926 9.9849C10.7263 10.5752 10.1685 11 9.51152 11C8.85456 11 8.2967 10.5752 8.09701 9.9849H0V8.98825H8.11008C8.32017 8.41729 8.86833 8.01007 9.51152 8.01007C10.1547 8.01007 10.7029 8.41729 10.913 8.98825H12V9.9849H10.926ZM9.49309 8.99518C9.21185 8.99518 8.98387 9.22344 8.98387 9.50503C8.98387 9.78662 9.21185 10.0149 9.49309 10.0149C9.77432 10.0149 10.0023 9.78662 10.0023 9.50503C10.0023 9.22344 9.77432 8.99518 9.49309 8.99518ZM6.00922 6.99497C5.35226 6.99497 4.7944 6.57012 4.59471 5.97987H0V4.98322H4.60778C4.81786 4.41226 5.36603 4.00503 6.00922 4.00503C6.65241 4.00503 7.20057 4.41226 7.41065 4.98322H12V5.97987H7.42372C7.22404 6.57012 6.66618 6.99497 6.00922 6.99497ZM5.99078 4.99014C5.70955 4.99014 5.48157 5.21841 5.48157 5.5C5.48157 5.78159 5.70955 6.00986 5.99078 6.00986C6.27202 6.00986 6.5 5.78159 6.5 5.5C6.5 5.21841 6.27202 4.99014 5.99078 4.99014ZM2.50691 2.98993C1.84995 2.98993 1.29209 2.56509 1.09241 1.97483H0V0.978188H1.10547C1.31556 0.407221 1.86372 0 2.50691 0C3.1501 0 3.69827 0.407221 3.90835 0.978188H12V1.97483H3.92142C3.72173 2.56509 3.16387 2.98993 2.50691 2.98993ZM2.48848 0.985109C2.20724 0.985109 1.97926 1.21338 1.97926 1.49497C1.97926 1.77656 2.20724 2.00482 2.48848 2.00482C2.76971 2.00482 2.9977 1.77656 2.9977 1.49497C2.9977 1.21338 2.76971 0.985109 2.48848 0.985109Z" fill="black"/>
</svg>
