<svg width="9" height="12" viewBox="0 0 9 12" fill="none" xmlns="http://www.w3.org/2000/svg">
<path fill-rule="evenodd" clip-rule="evenodd" d="M6.60043 4.47795C6.60043 5.65116 5.64929 6.6023 4.476 6.6023C3.30271 6.6023 2.35156 5.65116 2.35156 4.47795C2.35156 3.30466 3.30271 2.35352 4.476 2.35352C5.64929 2.35352 6.60043 3.30466 6.60043 4.47795Z" fill="black"/>
<path fill-rule="evenodd" clip-rule="evenodd" d="M4.47854 0C6.94731 0 8.95708 2.00958 8.95708 4.47854C8.95708 6.77524 5.8566 10.1052 4.47854 11.9999C3.10059 10.1052 0 6.77502 0 4.47854C0 2.00977 2.00958 0 4.47854 0ZM4.47854 1.72248C5.97133 1.72248 7.23445 2.98566 7.23445 4.47839C7.23445 5.97118 5.97126 7.2343 4.47854 7.2343C2.98581 7.2343 1.72263 5.97111 1.72263 4.47839C1.72263 2.9856 2.98581 1.72248 4.47854 1.72248Z" fill="black"/>
</svg>
