<svg width="23" height="20" viewBox="0 0 23 20" fill="none" xmlns="http://www.w3.org/2000/svg">
<path fill-rule="evenodd" clip-rule="evenodd" d="M21.3926 10.7841C18.6742 13.4464 13.8318 18.189 12.5324 19.4616C11.7418 20.2359 11.0998 20.0497 10.4851 19.4476C10.1077 19.078 3.36629 12.4755 1.45723 10.6058C-0.451826 8.73605 -0.568374 4.57133 1.69998 2.10651C3.96833 -0.358304 8.58441 -0.975392 11.5311 2.01736C14.5234 -0.913222 18.7497 -0.429448 21.1802 2.04708C23.2753 4.18185 23.7961 8.43008 21.3926 10.7841ZM20.2092 3.14663C19.2407 2.19804 16.7563 0.575277 13.8068 2.10651C12.8977 2.57849 12.5389 3.5959 11.5311 3.5959C10.5233 3.5959 10.2065 2.66416 9.1947 2.10651C8.18288 1.54886 4.92134 0.74125 2.61746 3.50324C0.551344 5.98018 2.00398 9.09073 3.1261 10.1897C4.24821 11.2887 11.5008 18.3621 11.5008 18.3621C11.5008 18.3621 17.8947 12.0702 20.1485 9.86283C22.4023 7.65546 21.1778 4.09522 20.2092 3.14663Z" fill="white"/>
</svg>
