<svg width="17" height="9" viewBox="0 0 17 9" fill="none" xmlns="http://www.w3.org/2000/svg">
<path fill-rule="evenodd" clip-rule="evenodd" d="M16.7273 4.93199C16.3917 5.2515 12.8753 8.68611 12.7045 8.84868C12.5338 9.01126 12.4998 9.00016 12.2273 9.00016H0.340909C0.152636 9.00016 0 8.85484 0 8.67557V0.325462C0 0.145809 0.152636 0.000160617 0.340909 0.000160617H12.2273C12.4998 0.000160617 12.5338 -0.0109647 12.7045 0.151968C12.8753 0.3149 16.3917 3.75706 16.7273 4.07727C17.0628 4.39747 17.0628 4.6125 16.7273 4.93199ZM12.1818 0.824257H0.863636V8.19775H12.1136L15.9545 4.53269L12.1818 0.824257ZM12.9773 3.25317C13.6927 3.25317 14.2727 3.80662 14.2727 4.48932C14.2727 5.17202 13.6927 5.72546 12.9773 5.72546C12.2618 5.72546 11.6818 5.17202 11.6818 4.48932C11.6818 3.80662 12.2618 3.25317 12.9773 3.25317ZM12.9659 4.92305C13.2107 4.92305 13.4091 4.73373 13.4091 4.50016C13.4091 4.26659 13.2107 4.07727 12.9659 4.07727C12.7211 4.07727 12.5227 4.26659 12.5227 4.50016C12.5227 4.73373 12.7211 4.92305 12.9659 4.92305Z" fill="black"/>
</svg>
