<svg width="18" height="15" viewBox="0 0 18 15" fill="none" xmlns="http://www.w3.org/2000/svg">
<path fill-rule="evenodd" clip-rule="evenodd" d="M17.5447 15H12.2933C12.0418 15 11.8379 14.7896 11.8379 14.53V14.47C11.8379 14.2104 12.0418 14 12.2933 14H17.5447C17.7961 14 18 14.2104 18 14.47V14.53C18 14.7896 17.7961 15 17.5447 15ZM17.5447 8.19974H10.7429C10.4915 8.19974 10.2876 7.9893 10.2876 7.72974V7.66974C10.2876 7.41016 10.4915 7.19974 10.7429 7.19974H17.5447C17.7961 7.19974 18 7.41016 18 7.66974V7.72974C18 7.9893 17.7961 8.19974 17.5447 8.19974ZM17.5447 1H1.831C1.57952 1 1.37567 0.78958 1.37567 0.53V0.47C1.37567 0.21042 1.57952 0 1.831 0H17.5447C17.7961 0 18 0.21042 18 0.47V0.53C18 0.78958 17.7961 1 17.5447 1ZM4.35075 4.36438C6.7536 4.36438 8.7015 6.37504 8.7015 8.85532C8.7015 10.0861 8.22185 11.2012 7.44499 12.0124C7.44499 12.0124 9.1825 13.8059 9.50615 14.14C9.82982 14.4741 9.59867 14.772 9.55221 14.82C9.50574 14.868 9.16905 15.1845 8.81593 14.82C8.46281 14.4555 6.7077 12.6308 6.7077 12.6308C6.02851 13.0835 5.21936 13.3463 4.35075 13.3463C1.94789 13.3463 0 11.3356 0 8.85532C0 6.37504 1.94789 4.36438 4.35075 4.36438ZM4.35075 12.3826C6.238 12.3826 7.76792 10.8034 7.76792 8.85532C7.76792 6.90724 6.238 5.32804 4.35075 5.32804C2.4635 5.32804 0.933578 6.90724 0.933578 8.85532C0.933578 10.8034 2.4635 12.3826 4.35075 12.3826Z" fill="black"/>
</svg>
