<svg width="17" height="17" viewBox="0 0 17 17" fill="none" xmlns="http://www.w3.org/2000/svg">
<path fill-rule="evenodd" clip-rule="evenodd" d="M16.4689 16.9984H0.508802C0.227805 16.9984 0 16.774 0 16.4972C0 16.2203 0.227805 15.9956 0.508802 15.9956H16.4689C16.7499 15.9956 16.9777 16.22 16.9777 16.4969C16.9777 16.7737 16.7499 16.9984 16.4689 16.9984ZM16.4689 10.1789H7.9273C7.69149 11.34 6.65113 12.2148 5.4033 12.2148C4.15547 12.2148 3.1151 11.34 2.8793 10.1789H0.508802C0.227805 10.1789 0 9.95452 0 9.67767C0 9.4008 0.227805 9.17638 0.508802 9.17638H2.87965C3.1162 8.01627 4.15613 7.14241 5.4033 7.14241C6.65047 7.14241 7.6904 8.01627 7.92694 9.17638H16.4689C16.7499 9.17638 16.9776 9.4008 16.9776 9.67767C16.9776 9.95452 16.7499 10.1789 16.4689 10.1789ZM5.4033 8.14471C4.54346 8.14471 3.84641 8.83144 3.84641 9.6786C3.84641 10.5257 4.54346 11.2125 5.4033 11.2125C6.26314 11.2125 6.96019 10.5257 6.96019 9.6786C6.96019 8.83144 6.26314 8.14471 5.4033 8.14471ZM16.4689 3.03655H15.1402C14.9044 4.19759 13.864 5.07238 12.6162 5.07238C11.3684 5.07238 10.328 4.19759 10.0922 3.03655H0.508802C0.227805 3.03655 0 2.81211 0 2.53526C0 2.25841 0.227805 2.03397 0.508802 2.03397H10.0925C10.3291 0.873855 11.369 0 12.6162 0C13.8634 0 14.9033 0.873855 15.1398 2.03397H16.4689C16.7499 2.03397 16.9776 2.25841 16.9776 2.53526C16.9776 2.81211 16.7499 3.03655 16.4689 3.03655ZM12.6162 1.0023C11.7564 1.0023 11.0593 1.68905 11.0593 2.53619C11.0593 3.38333 11.7564 4.07008 12.6162 4.07008C13.476 4.07008 14.1731 3.38333 14.1731 2.53619C14.1731 1.68905 13.476 1.0023 12.6162 1.0023Z" fill="black"/>
</svg>
