<svg width="23" height="20" viewBox="0 0 23 20" fill="none" xmlns="http://www.w3.org/2000/svg">
<path d="M11.1731 18.7332L11.1731 18.7331L2.14523 9.89138C2.14522 9.89137 2.14522 9.89137 2.14521 9.89137C1.43752 9.19823 0.986418 7.98309 1.00031 6.58927C1.01404 5.21126 1.48413 3.80504 2.42409 2.78368C4.34786 0.693283 8.30389 0.176913 10.8068 2.71896L11.5065 3.42963L12.2191 2.7318C14.7811 0.222598 18.3746 0.627946 20.4548 2.74752L21.1685 2.04708L20.4548 2.74752C21.3112 3.62017 21.8835 4.97656 21.9632 6.38974C22.0426 7.79449 21.6318 9.13861 20.6812 10.0697L11.821 18.7472L12.5207 19.4616L11.821 18.7472C11.6379 18.9265 11.536 18.9657 11.5035 18.973C11.4859 18.9688 11.3816 18.9374 11.1731 18.7332ZM11.4919 18.9742C11.4919 18.9738 11.4953 18.9731 11.5019 18.9733C11.4951 18.9747 11.4918 18.9746 11.4919 18.9742Z" fill="white" stroke="#FF8080" stroke-width="2"/>
</svg>
