<svg width="25" height="22" viewBox="0 0 25 22" fill="none" xmlns="http://www.w3.org/2000/svg">
<path d="M12.5205 2.98866L12.7948 2.71479C12.7948 2.71476 12.7949 2.71473 12.7949 2.71471C15.3468 0.164006 19.4984 0.16402 22.0499 2.7148L22.4605 3.12524L22.4228 3.12062C23.4157 4.29581 23.9665 5.78912 23.9665 7.33945C23.9665 9.07428 23.2768 10.7379 22.0496 11.9639L12.5205 2.98866ZM12.5205 2.98866L12.2456 2.71422L12.2456 2.71421C11.0176 1.48838 9.35332 0.799834 7.61811 0.8L12.5205 2.98866ZM21.3784 12.6374L22.0493 11.9642L7.61809 0.8C5.88283 0.800005 4.21859 1.48872 2.99062 2.71472L2.99059 2.71476C1.76318 3.94084 1.07344 5.60455 1.07344 7.33953C1.07344 9.0745 1.76317 10.7381 2.99056 11.9643C2.99056 11.9643 2.99057 11.9643 2.99058 11.9643L12.0283 20.9962L12.1698 20.8549L12.0284 20.9963L12.0283 20.9962C12.1587 21.1268 12.3357 21.2 12.52 21.2C12.7044 21.2 12.8813 21.1268 13.0117 20.9962L21.3781 12.6377L21.3784 12.6374ZM11.748 3.80813L11.7481 3.80829L11.7481 3.8083C11.9533 4.01264 12.2308 4.12722 12.5202 4.12722C12.8096 4.12722 13.0871 4.01265 13.2922 3.8083L13.2924 3.80814L13.5912 3.50978L13.5917 3.50934C14.6066 2.48978 15.9852 1.91584 17.4238 1.91384C18.8623 1.91197 20.2424 2.48229 21.2599 3.49922L21.4013 3.35775L21.26 3.49923C22.2775 4.51599 22.8489 5.89595 22.848 7.33444C22.847 8.77292 22.2739 10.152 21.2551 11.1675L21.1332 11.289L21.1336 11.2895L20.583 11.8402L20.5829 11.8402L12.5203 19.8959L3.78676 11.1684C3.78657 11.1682 3.78638 11.168 3.78618 11.1678C2.43666 9.79541 1.9167 7.80969 2.42073 5.95182L2.22771 5.89945L2.42073 5.95182C2.9248 4.0937 4.3771 2.6427 6.23563 2.14047C8.0941 1.63831 10.0793 2.16018 11.4505 3.51117C11.4507 3.51133 11.4509 3.5115 11.451 3.51167L11.748 3.80813Z" fill="white" stroke="white" stroke-width="0.4"/>
</svg>
