<svg width="22" height="22" viewBox="0 0 22 22" fill="none" xmlns="http://www.w3.org/2000/svg">
<path fill-rule="evenodd" clip-rule="evenodd" d="M18.8633 21.992H3.14326C1.41699 21.992 0.0175781 20.5972 0.0175781 18.8765V3.11547C0.0175781 1.39484 1.41699 0 3.14326 0H18.8633C20.5895 0 21.989 1.39484 21.989 3.11547V18.8765C21.989 20.5972 20.5895 21.992 18.8633 21.992ZM19.3627 5.74423C19.3627 4.0236 17.9633 2.62876 16.237 2.62876H5.76956C4.04329 2.62876 2.64387 4.0236 2.64387 5.74423V16.2476C2.64387 17.9682 4.04329 19.363 5.76956 19.363H16.237C17.9633 19.363 19.3627 17.9682 19.3627 16.2476V5.74423ZM16.1447 18.0671H5.86186C4.79956 18.0671 3.93836 17.2088 3.93836 16.1499V5.84184C3.93836 4.78299 4.79956 3.92463 5.86186 3.92463H16.1447C17.207 3.92463 18.0682 4.78299 18.0682 5.84184V16.1499C18.0682 17.2088 17.207 18.0671 16.1447 18.0671ZM11.0356 6.42266C8.52586 6.42266 6.49132 8.45054 6.49132 10.9521C6.49132 13.4536 8.52586 15.4815 11.0356 15.4815C13.5453 15.4815 15.5798 13.4536 15.5798 10.9521C15.5798 8.45054 13.5453 6.42266 11.0356 6.42266ZM15.5558 5.21242C14.852 5.21242 14.2815 5.78109 14.2815 6.48257C14.2815 7.18405 14.852 7.75272 15.5558 7.75272C16.2596 7.75272 16.8301 7.18405 16.8301 6.48257C16.8301 5.78109 16.2596 5.21242 15.5558 5.21242ZM11.0356 14.1517C9.2627 14.1517 7.82546 12.7192 7.82546 10.9521C7.82546 9.18498 9.2627 7.75244 11.0356 7.75244C12.8085 7.75244 14.2457 9.18498 14.2457 10.9521C14.2457 12.7192 12.8085 14.1517 11.0356 14.1517Z" fill="#808080"/>
</svg>
