<svg width="28" height="22" viewBox="0 0 28 22" fill="none" xmlns="http://www.w3.org/2000/svg">
<path fill-rule="evenodd" clip-rule="evenodd" d="M27.7624 5.07956C27.3552 6.1092 25.578 10.5658 25.217 11.4633C24.4024 13.4883 24.5721 13.4883 21.9927 13.4883C19.4133 13.4883 6.04121 13.4883 6.04121 13.4883V15.4789H21.6533V17.5725C21.6533 17.5725 7.09333 17.5725 5.39636 17.5725C3.69939 17.5725 3.93697 16.7145 3.93697 15.9938C3.93697 15.273 3.93697 4.73635 3.93697 4.73635L0 1.81903L1.42545 0L5.83758 3.29485C5.83758 3.29485 24.8776 3.29485 26.5406 3.29485C28.2036 3.29485 28.1697 4.04992 27.7624 5.07956ZM6.00727 5.38846V11.429H22.9091L25.3867 5.38846H6.00727ZM5.93939 18.2246C6.97034 18.2246 7.80606 19.0698 7.80606 20.1123C7.80606 21.1549 6.97034 22 5.93939 22C4.90845 22 4.07273 21.1549 4.07273 20.1123C4.07273 19.0698 4.90845 18.2246 5.93939 18.2246ZM22.2642 18.2246C23.2952 18.2246 24.1309 19.0698 24.1309 20.1123C24.1309 21.1549 23.2952 22 22.2642 22C21.2333 22 20.3976 21.1549 20.3976 20.1123C20.3976 19.0698 21.2333 18.2246 22.2642 18.2246Z" fill="white"/>
</svg>
