<svg width="30" height="22" viewBox="0 0 30 22" fill="none" xmlns="http://www.w3.org/2000/svg">
<path d="M4.55178 4.82295L0 1.46542L1.98605 0L6.53643 3.35857H27.9297C28.1484 3.35855 28.3642 3.39628 28.5597 3.46872C28.7552 3.54117 28.925 3.64633 29.0557 3.77582C29.1863 3.90531 29.2741 4.05553 29.312 4.2145C29.35 4.37348 29.3371 4.5368 29.2743 4.69143L25.9057 12.9765C25.8191 13.1899 25.6414 13.3771 25.3992 13.5101C25.157 13.6431 24.863 13.7149 24.5611 13.7149H7.35892V15.7862H22.7982V17.8575H5.95535C5.5831 17.8575 5.2261 17.7483 4.96288 17.5541C4.69966 17.3599 4.55178 17.0965 4.55178 16.8218V4.82295ZM7.35892 5.42984V11.6436H23.5168L26.0433 5.42984H7.35892ZM6.65714 22C6.09876 22 5.56326 21.8363 5.16843 21.545C4.77359 21.2537 4.55178 20.8585 4.55178 20.4465C4.55178 20.0345 4.77359 19.6394 5.16843 19.3481C5.56326 19.0568 6.09876 18.8931 6.65714 18.8931C7.21551 18.8931 7.75102 19.0568 8.14585 19.3481C8.54068 19.6394 8.7625 20.0345 8.7625 20.4465C8.7625 20.8585 8.54068 21.2537 8.14585 21.545C7.75102 21.8363 7.21551 22 6.65714 22ZM23.5 22C22.9416 22 22.4061 21.8363 22.0113 21.545C21.6165 21.2537 21.3946 20.8585 21.3946 20.4465C21.3946 20.0345 21.6165 19.6394 22.0113 19.3481C22.4061 19.0568 22.9416 18.8931 23.5 18.8931C24.0584 18.8931 24.5939 19.0568 24.9887 19.3481C25.3835 19.6394 25.6054 20.0345 25.6054 20.4465C25.6054 20.8585 25.3835 21.2537 24.9887 21.545C24.5939 21.8363 24.0584 22 23.5 22Z" fill="white"/>
</svg>
