<svg width="17" height="21" viewBox="0 0 17 21" fill="none" xmlns="http://www.w3.org/2000/svg">
<path fill-rule="evenodd" clip-rule="evenodd" d="M16.7213 20.8404C16.1665 21.3004 15.6375 20.617 15.6375 20.617L12.4268 15.9748C11.211 16.6947 9.80151 17.1064 8.29873 17.1064C3.71548 17.1064 0 13.277 0 8.55319C0 3.8294 3.71548 0 8.29873 0C12.882 0 16.5975 3.8294 16.5975 8.55319C16.5975 11.1808 15.4478 13.5317 13.6386 15.1007L16.8452 19.8511C16.8452 19.8511 17.2528 20.3998 16.7213 20.8404ZM15.204 8.55319C15.204 4.62258 12.1124 1.43617 8.29873 1.43617C4.48506 1.43617 1.39344 4.62258 1.39344 8.55319C1.39344 12.4838 4.48506 15.6702 8.29873 15.6702C12.1124 15.6702 15.204 12.4838 15.204 8.55319Z" fill="white"/>
</svg>
