<svg width="19" height="11" viewBox="0 0 19 11" fill="none" xmlns="http://www.w3.org/2000/svg">
<path opacity="0.5" d="M0.936245 0.822446C0.728118 0.822817 0.55957 0.991364 0.55957 1.19912L0.559571 10.2567C0.559571 10.3571 0.599342 10.4526 0.669953 10.5232C0.740564 10.5938 0.836456 10.6336 0.936426 10.6336L18.519 10.6336C18.6231 10.6336 18.7173 10.5914 18.7855 10.5232C18.8537 10.455 18.8959 10.3608 18.8959 10.2567V1.19912C18.8959 1.09877 18.8561 1.00326 18.7855 0.932647C18.7149 0.862036 18.619 0.822262 18.519 0.822266L0.936245 0.822446ZM18.1421 9.88009L1.31306 9.88009L1.31306 8.51202L18.1421 8.51202L18.1421 9.88009ZM18.1421 7.75791H1.31306L1.31306 1.57575L3.22374 1.57575L3.22374 5.28341C3.22374 5.49191 3.39229 5.66045 3.60042 5.66008C3.70448 5.66008 3.79869 5.6179 3.86689 5.5497C3.93509 5.4815 3.97727 5.38729 3.97727 5.28323L3.97765 1.57519L9.43986 1.57519L9.44019 3.59476C9.44019 3.80326 9.60874 3.9718 9.81687 3.97143C9.92094 3.97143 10.0151 3.92925 10.0833 3.86105C10.1515 3.79285 10.1937 3.69864 10.1937 3.59458L10.1934 1.57501L15.6556 1.57501L15.6552 5.28305C15.6552 5.49155 15.8238 5.66009 16.0319 5.65972C16.136 5.65972 16.2302 5.61754 16.2984 5.54934C16.3666 5.48114 16.4087 5.38693 16.4087 5.28287L16.4091 1.57483L18.1424 1.57578L18.1421 7.75791Z" fill="black"/>
</svg>
