<svg width="27" height="16" viewBox="0 0 27 16" fill="none" xmlns="http://www.w3.org/2000/svg">
<path fill-rule="evenodd" clip-rule="evenodd" d="M17.394 2.34234L18.9915 0.751953L26.1917 7.89468L18.9922 15.0493L17.3933 13.4604L21.8884 8.99319L0.53125 8.99318L0.53125 6.79359L21.8811 6.79359L17.394 2.34234Z" fill="#3CFFB9"/>
<path fill-rule="evenodd" clip-rule="evenodd" d="M0.53125 8.99318L0.53125 6.79359L21.8811 6.79359L17.394 2.34234L18.9915 0.751953L26.1917 7.89468L18.9922 15.0493L17.3933 13.4604L21.8884 8.99319L0.53125 8.99318ZM17.677 13.4604L22.3734 8.79319L0.73125 8.79318L0.73125 6.99359L22.3666 6.99359L17.6777 2.34209L18.9918 1.03392L25.9078 7.8948L18.9922 14.7674L17.677 13.4604Z" fill="#3CFFB9"/>
</svg>
