<svg width="117" height="117" viewBox="0 0 117 117" fill="none" xmlns="http://www.w3.org/2000/svg">
<path d="M114.398 65.6576L114.015 65.055C114.448 64.7797 114.788 64.4325 115.034 64.0132C115.283 63.5975 115.431 63.1286 115.478 62.6066C115.529 62.0359 115.438 61.4951 115.205 60.9843C114.976 60.4737 114.642 60.0632 114.202 59.7529C113.765 59.446 113.258 59.267 112.681 59.2156C111.809 59.1381 111.055 59.3716 110.418 59.9163C109.781 60.4643 109.422 61.1938 109.341 62.1049C109.252 63.1068 109.57 63.9799 110.294 64.7241L109.816 65.2502C109.394 64.8532 109.082 64.376 108.88 63.8188C108.681 63.2652 108.61 62.6592 108.669 62.001C108.78 60.7495 109.285 59.7992 110.182 59.1502C110.94 58.6065 111.816 58.3789 112.812 58.4674C113.859 58.5605 114.707 59.0052 115.355 59.8014C116.006 60.6012 116.282 61.5539 116.184 62.6596C116.125 63.3275 115.938 63.9188 115.624 64.4334C115.314 64.9482 114.905 65.3563 114.398 65.6576Z" fill="white"/>
<path d="M108.386 67.3748L115.007 70.3392L114.975 70.4519L108.504 71.6306L113.37 76.0364L113.338 76.1491L106.15 75.1557L106.346 74.4752L111.477 75.218L107.241 71.3591L107.291 71.1855L112.976 70.1417L108.194 68.0412L108.386 67.3748Z" fill="white"/>
<path d="M110.337 83.8719C109.844 84.8409 109.107 85.4871 108.128 85.8105C107.149 86.134 106.187 86.055 105.241 85.5736C104.304 85.0967 103.675 84.3657 103.355 83.3808C103.033 82.3987 103.11 81.4392 103.587 80.5021C104.07 79.5535 104.802 78.9182 105.784 78.5962C106.767 78.2742 107.719 78.348 108.641 78.8176C109.256 79.1306 109.751 79.5687 110.126 80.1319C110.499 80.698 110.702 81.313 110.737 81.9771C110.774 82.6427 110.641 83.2743 110.337 83.8719ZM109.695 83.5834C109.935 83.1106 110.04 82.5996 110.009 82.0505C109.978 81.5015 109.814 81.0017 109.518 80.5512C109.221 80.1006 108.816 79.7447 108.303 79.4834C107.542 79.0965 106.766 79.032 105.974 79.2898C105.183 79.552 104.598 80.0544 104.22 80.7971C103.968 81.2932 103.855 81.8128 103.882 82.356C103.907 82.9021 104.069 83.399 104.367 83.8466C104.663 84.2971 105.067 84.6523 105.578 84.9122C106.085 85.1706 106.604 85.285 107.134 85.2553C107.666 85.23 108.164 85.0654 108.629 84.7616C109.094 84.4577 109.45 84.065 109.695 83.5834Z" fill="white"/>
<path d="M106.509 88.9802L107.078 89.3848L104.795 92.5965L104.226 92.192L105.154 90.8866L99.8687 87.1299L100.293 86.5329L105.578 90.2896L106.509 88.9802Z" fill="white"/>
<path d="M102.906 95.0869L101.947 96.1487C101.398 96.7575 101 97.1442 100.755 97.3088C100.405 97.5455 100.026 97.6547 99.617 97.6364C99.2105 97.6202 98.8309 97.4528 98.4782 97.1343C98.123 96.8136 97.9146 96.4543 97.8529 96.0564C97.7935 95.6607 97.8735 95.2614 98.0926 94.8584C98.2528 94.5644 98.6318 94.0865 99.2296 93.4246L99.5733 93.0441L97.0946 90.8056L97.5757 90.2729L102.906 95.0869ZM101.907 95.1516L100.095 93.5153L99.2693 94.4078C98.9399 94.7726 98.7314 95.069 98.6439 95.297C98.5588 95.5272 98.5463 95.7572 98.6064 95.9869C98.669 96.2188 98.792 96.4177 98.9756 96.5835C99.1544 96.7449 99.3611 96.8439 99.5957 96.8803C99.8328 96.919 100.055 96.8869 100.262 96.7842C100.466 96.6839 100.731 96.4538 101.056 96.0938L101.907 95.1516Z" fill="white"/>
<path d="M97.8125 100.506L94.6884 103.186L94.2274 102.649L96.8067 100.436L95.3442 98.7311L92.7872 100.925L92.3293 100.391L94.8864 98.1975L93.0519 96.0592L90.4949 98.2529L90.0339 97.7156L93.1357 95.0545L97.8125 100.506Z" fill="white"/>
<path d="M92.3211 104.198L92.7109 104.777L89.4418 106.977L89.0519 106.398L90.3807 105.504L86.7605 100.124L87.3682 99.7152L90.9883 105.095L92.3211 104.198Z" fill="white"/>
<path d="M86.7422 108.694L86.1001 109.015L84.7229 106.259L84.2599 106.49C83.4184 106.911 82.7938 107.172 82.3861 107.274C81.9785 107.376 81.5891 107.336 81.2179 107.153C80.8482 106.974 80.5476 106.653 80.3163 106.19C80.0893 105.736 80.0101 105.304 80.0786 104.895C80.1486 104.489 80.3292 104.155 80.6204 103.893C80.9131 103.634 81.4569 103.306 82.2518 102.909L83.5316 102.269L86.7422 108.694ZM83.1995 103.21L82.5137 103.553C81.7916 103.914 81.338 104.182 81.1531 104.358C80.9667 104.539 80.856 104.754 80.821 105.005C80.7831 105.257 80.8369 105.528 80.9824 105.819C81.1425 106.14 81.3542 106.359 81.6177 106.479C81.8811 106.598 82.1505 106.617 82.4256 106.534C82.6993 106.455 83.1798 106.244 83.867 105.901L84.4086 105.63L83.1995 103.21Z" fill="white"/>
<path d="M75.082 113.692L73.7112 114.047C73.1597 114.19 72.7187 114.233 72.3882 114.178C72.0586 114.125 71.7736 113.985 71.5332 113.758C71.2898 113.532 71.1252 113.254 71.0396 112.923C70.9597 112.614 70.9623 112.312 71.0475 112.018C71.1335 111.727 71.3027 111.464 71.555 111.231C71.1608 111.202 70.8443 111.129 70.6057 111.013C70.3679 110.899 70.1649 110.738 69.9966 110.53C69.8259 110.325 69.7051 110.086 69.6341 109.812C69.4898 109.254 69.5723 108.728 69.8816 108.234C70.1887 107.745 70.6857 107.411 71.3727 107.233L73.2824 106.739L75.082 113.692ZM74.2252 113.188L73.6489 110.961L73.2519 111.064C72.7697 111.189 72.4266 111.325 72.2225 111.472C72.0193 111.622 71.8764 111.81 71.7938 112.037C71.712 112.266 71.7017 112.499 71.7628 112.736C71.8452 113.054 72.0215 113.274 72.2917 113.396C72.5596 113.521 72.9363 113.521 73.4216 113.396L74.2252 113.188ZM73.4679 110.262L72.7779 107.596L71.9176 107.818C71.4102 107.95 71.051 108.095 70.8399 108.254C70.6296 108.416 70.4809 108.621 70.3938 108.868C70.3034 109.117 70.2901 109.364 70.3537 109.61C70.4336 109.919 70.6042 110.162 70.8654 110.34C71.1267 110.518 71.4448 110.604 71.8197 110.598C72.0708 110.593 72.4894 110.515 73.0755 110.363L73.4679 110.262Z" fill="white"/>
<path d="M61.0342 114.835L61.5542 114.346C61.9059 114.72 62.3108 114.988 62.7689 115.152C63.224 115.318 63.7124 115.376 64.2338 115.323C64.8039 115.266 65.3179 115.075 65.7761 114.751C66.2345 114.43 66.5749 114.024 66.7971 113.534C67.0165 113.048 67.0971 112.516 67.0391 111.94C66.9515 111.068 66.5804 110.371 65.9258 109.848C65.268 109.325 64.484 109.11 63.5739 109.201C62.5731 109.302 61.7752 109.778 61.1804 110.63L60.5738 110.259C60.8845 109.77 61.2945 109.373 61.8038 109.07C62.3102 108.771 62.8922 108.588 63.5497 108.522C64.7999 108.396 65.828 108.713 66.634 109.473C67.3103 110.114 67.6985 110.933 67.7985 111.927C67.9038 112.973 67.6262 113.889 66.9659 114.675C66.3027 115.465 65.4188 115.916 64.3144 116.027C63.6472 116.094 63.0314 116.022 62.467 115.81C61.903 115.602 61.4254 115.277 61.0342 114.835Z" fill="white"/>
<path d="M57.125 116.231L53.0157 115.993L53.0566 115.287L56.4494 115.483L56.5793 113.241L53.2158 113.046L53.2565 112.344L56.62 112.539L56.7829 109.726L53.4194 109.531L53.4604 108.824L57.5405 109.061L57.125 116.231Z" fill="white"/>
<path d="M31.9653 7.38015L31.6817 8.03535C31.2108 7.83181 30.7326 7.7459 30.2473 7.77761C29.7633 7.8049 29.2923 7.94599 28.8344 8.2009C28.3338 8.47956 27.9375 8.85851 27.6454 9.33776C27.3518 9.81417 27.2002 10.3214 27.1905 10.8596C27.1821 11.3933 27.3188 11.9133 27.6006 12.4195C28.0265 13.1846 28.6436 13.6775 29.452 13.8981C30.2631 14.1172 31.0683 14.0043 31.8676 13.5594C32.7464 13.0701 33.2901 12.3167 33.4985 11.2991L34.2024 11.399C34.1112 11.9714 33.8919 12.4977 33.5445 12.9779C33.1984 13.4538 32.7367 13.8524 32.1593 14.1738C31.0614 14.7849 29.9919 14.9015 28.9507 14.5236C28.0753 14.2025 27.3945 13.6054 26.9085 12.7322C26.3971 11.8135 26.2886 10.8624 26.5831 9.87884C26.8788 8.89087 27.5116 8.12693 28.4815 7.58703C29.0674 7.26088 29.6614 7.083 30.2633 7.0534C30.8637 7.02096 31.431 7.12988 31.9653 7.38015Z" fill="white"/>
<path d="M36.7652 11.3886L35.4971 4.24552L35.6084 4.209L40.2192 8.89943L41.1297 2.3986L41.2411 2.36209L44.458 8.86618L43.7852 9.08677L41.5166 4.42482L40.7044 10.0969L40.5327 10.1532L36.4749 6.03683L37.4241 11.1725L36.7652 11.3886Z" fill="white"/>
<path d="M49.3152 0.507777C50.3938 0.371329 51.342 0.617231 52.1598 1.24548C52.9775 1.87374 53.4529 2.71427 53.5861 3.76708C53.7181 4.81019 53.4667 5.74103 52.832 6.55958C52.2005 7.37772 51.3632 7.85277 50.3201 7.98472C49.2641 8.11831 48.327 7.86937 47.5088 7.23788C46.6907 6.6064 46.2167 5.77717 46.0867 4.7502C46.0001 4.06555 46.0846 3.41013 46.34 2.78392C46.5987 2.15731 46.993 1.64315 47.523 1.24143C48.0525 0.836485 48.6499 0.591934 49.3152 0.507777ZM49.4373 1.20105C48.9109 1.26764 48.4294 1.46801 47.9926 1.80216C47.5558 2.13631 47.2344 2.55266 47.0284 3.0512C46.8224 3.54975 46.7556 4.08483 46.8279 4.65644C46.9349 5.50257 47.3177 6.18092 47.9762 6.69151C48.6375 7.19847 49.3815 7.39965 50.2082 7.29507C50.7605 7.22521 51.2538 7.02664 51.6881 6.69935C52.1257 6.37166 52.4459 5.95875 52.6487 5.46062C52.8547 4.96207 52.9217 4.42861 52.8498 3.86022C52.7783 3.29506 52.5814 2.80156 52.2589 2.3797C51.9393 1.95421 51.5232 1.63444 51.0105 1.42039C50.4978 1.20635 49.9734 1.13324 49.4373 1.20105Z" fill="white"/>
<path d="M55.6883 0.79867L55.7031 0.100586L59.6427 0.184458L59.6278 0.882542L58.0266 0.848453L57.8886 7.33136L57.1563 7.31577L57.2943 0.832863L55.6883 0.79867Z" fill="white"/>
<path d="M62.7656 0.350586L64.1827 0.54722C64.9952 0.659966 65.5385 0.771492 65.8123 0.881799C66.2047 1.03813 66.5082 1.29056 66.7228 1.63911C66.9378 1.98444 67.0126 2.39248 66.9473 2.86323C66.8815 3.3372 66.7014 3.71151 66.4069 3.98615C66.1129 4.25756 65.7377 4.41582 65.2812 4.46093C64.948 4.49357 64.3397 4.4486 63.4563 4.32601L62.9484 4.25554L62.4894 7.56369L61.7784 7.46504L62.7656 0.350586ZM63.3806 1.14085L63.0451 3.55909L64.2473 3.74071C64.7342 3.80826 65.0965 3.81417 65.3343 3.75844C65.5725 3.69947 65.7698 3.5806 65.9261 3.40181C66.0828 3.2198 66.1781 3.00627 66.2121 2.76122C66.2452 2.52262 66.2109 2.29603 66.1093 2.08145C66.008 1.86365 65.8568 1.69807 65.6557 1.58471C65.4577 1.47179 65.1185 1.38201 64.6381 1.31534L63.3806 1.14085Z" fill="white"/>
<path d="M70.1094 1.51855L74.0818 2.59696L73.8963 3.28024L70.6166 2.38988L70.0281 4.55752L73.2796 5.4402L73.0954 6.11877L69.8439 5.23608L69.1058 7.95506L72.3572 8.83774L72.1718 9.52102L68.2276 8.45029L70.1094 1.51855Z" fill="white"/>
<path d="M76.2515 3.98585L76.5117 3.33789L80.1684 4.80617L79.9082 5.45413L78.422 4.85736L76.0058 10.8748L75.3261 10.6018L77.7423 4.58444L76.2515 3.98585Z" fill="white"/>
<path d="M83.1055 6.07715L83.7316 6.42802L82.2255 9.11586L82.677 9.36887C83.4977 9.82874 84.0647 10.1987 84.378 10.4787C84.6912 10.7587 84.8768 11.1034 84.9348 11.5127C84.9943 11.9192 84.8976 12.3482 84.6446 12.7998C84.3963 13.2428 84.0838 13.5509 83.7069 13.724C83.3316 13.8943 82.9538 13.9326 82.5734 13.8389C82.1947 13.7424 81.6177 13.4769 80.8424 13.0425L79.5944 12.3431L83.1055 6.07715ZM80.5595 12.0891L81.2282 12.4638C81.9325 12.8585 82.4094 13.0828 82.659 13.1368C82.913 13.1896 83.1534 13.1601 83.3802 13.0484C83.6098 12.9383 83.8042 12.7412 83.9633 12.4572C84.1384 12.1449 84.2013 11.8461 84.1521 11.5611C84.1028 11.276 83.9666 11.043 83.7434 10.862C83.5247 10.6797 83.0802 10.4008 82.41 10.0252L81.8818 9.72925L80.5595 12.0891Z" fill="white"/>
<path d="M93.7891 12.9121L94.8528 13.8468C95.2807 14.2228 95.5645 14.5631 95.7041 14.8678C95.8459 15.17 95.8904 15.4843 95.8377 15.8106C95.7874 16.1391 95.6494 16.4317 95.4238 16.6885C95.2133 16.9281 94.9623 17.0954 94.6709 17.1904C94.3816 17.2829 94.0695 17.2903 93.7347 17.2128C93.9321 17.5552 94.0497 17.8579 94.0874 18.1207C94.1273 18.3811 94.1082 18.6395 94.0302 18.8959C93.9568 19.1521 93.8266 19.3865 93.6397 19.5993C93.2594 20.0321 92.7782 20.2593 92.196 20.2807C91.6184 20.3019 91.0631 20.0783 90.53 19.6098L89.0481 18.3078L93.7891 12.9121ZM93.8531 13.9044L92.3351 15.6321L92.6432 15.9028C93.0174 16.2315 93.3226 16.439 93.5588 16.5252C93.7972 16.609 94.0332 16.6215 94.267 16.5625C94.5029 16.5012 94.7015 16.3788 94.8626 16.1954C95.0796 15.9484 95.1626 15.6789 95.1114 15.387C95.0649 15.0948 94.8533 14.7832 94.4767 14.4523L93.8531 13.9044ZM91.8581 16.1749L90.0404 18.2437L90.708 18.8303C91.1017 19.1762 91.4235 19.3918 91.6735 19.4772C91.9257 19.5601 92.1788 19.5679 92.4328 19.5008C92.6892 19.4358 92.9012 19.3079 93.0688 19.1172C93.2794 18.8775 93.3849 18.5997 93.3852 18.2837C93.3855 17.9677 93.2778 17.6563 93.0619 17.3496C92.9172 17.1445 92.6174 16.8421 92.1626 16.4424L91.8581 16.1749Z" fill="white"/>
<path d="M102.631 23.892L101.934 23.7366C102.046 23.2358 102.04 22.7501 101.918 22.2793C101.8 21.809 101.573 21.3729 101.237 20.9711C100.869 20.5317 100.422 20.2136 99.8969 20.0168C99.3738 19.8179 98.8471 19.7642 98.3167 19.8558C97.791 19.9478 97.3059 20.1797 96.8616 20.5516C96.1901 21.1136 95.8219 21.8123 95.757 22.6477C95.6942 23.4856 95.9564 24.2552 96.5435 24.9567C97.1891 25.728 98.0312 26.1205 99.0698 26.1341L99.1039 26.8442C98.5246 26.8621 97.9665 26.7456 97.4295 26.4946C96.8972 26.244 96.4189 25.8653 95.9948 25.3586C95.1883 24.3951 94.8729 23.3665 95.0485 22.2729C95.1995 21.3527 95.6581 20.5719 96.4245 19.9305C97.2308 19.2556 98.1446 18.9705 99.1659 19.075C100.192 19.1799 101.061 19.6579 101.774 20.5091C102.204 21.0234 102.49 21.5733 102.632 22.159C102.777 22.7426 102.777 23.3203 102.631 23.892Z" fill="white"/>
<path d="M105.98 26.3421L108.092 29.8752L107.485 30.2385L105.741 27.3214L103.813 28.4739L105.542 31.3657L104.938 31.7265L103.21 28.8346L100.791 30.2802L102.52 33.172L101.912 33.5353L99.8153 30.0273L105.98 26.3421Z" fill="white"/>
<path d="M25.189 105.063L25.9006 105.005C25.9423 105.517 26.0912 105.979 26.3473 106.393C26.5989 106.807 26.9448 107.156 27.385 107.441C27.8662 107.752 28.387 107.923 28.9473 107.956C29.5058 107.991 30.0248 107.887 30.5044 107.642C30.9794 107.399 31.3741 107.034 31.6885 106.547C32.1636 105.811 32.3086 105.035 32.1234 104.218C31.9355 103.399 31.4574 102.741 30.689 102.245C29.8441 101.699 28.9236 101.574 27.9274 101.868L27.6847 101.2C28.2328 101.011 28.8004 100.957 29.3876 101.038C29.9703 101.12 30.5391 101.34 31.0942 101.699C32.1497 102.381 32.7553 103.27 32.9111 104.366C33.0391 105.29 32.832 106.172 32.2898 107.011C31.7193 107.894 30.9307 108.437 29.9242 108.639C28.9132 108.843 27.9414 108.643 27.009 108.041C26.4458 107.677 26.0096 107.236 25.7005 106.719C25.3897 106.204 25.2192 105.652 25.189 105.063Z" fill="white"/>
<path d="M26.4684 98.9437L20.7597 103.42L20.6751 103.339L22.6479 97.065L16.482 99.3169L16.3974 99.2358L20.6263 93.3393L21.1372 93.8294L18.0886 98.023L23.4769 96.0739L23.6072 96.199L21.8811 101.715L25.9681 98.4637L26.4684 98.9437Z" fill="white"/>
<path d="M10.9655 92.9787C10.3381 92.0907 10.1094 91.1382 10.2796 90.1212C10.4498 89.1041 10.9682 88.2894 11.8349 87.677C12.6936 87.0702 13.6333 86.8546 14.6542 87.0301C15.6731 87.2029 16.486 87.7187 17.0927 88.5774C17.707 89.4467 17.9277 90.3908 17.7549 91.4098C17.5821 92.4287 17.0729 93.2369 16.2275 93.8343C15.6639 94.2325 15.0457 94.466 14.3729 94.5349C13.6983 94.6011 13.0591 94.4947 12.4554 94.2158C11.8491 93.9387 11.3525 93.5263 10.9655 92.9787ZM11.52 92.545C11.8262 92.9783 12.2294 93.3092 12.7297 93.5377C13.2299 93.7662 13.7484 93.8542 14.2853 93.8016C14.8222 93.7491 15.3259 93.5566 15.7964 93.2241C16.4929 92.732 16.9118 92.0753 17.053 91.2541C17.1896 90.4321 17.0175 89.6808 16.5366 89.0003C16.2153 88.5457 15.8082 88.2036 15.3152 87.974C14.8203 87.7418 14.3053 87.6533 13.7703 87.7084C13.2335 87.7609 12.7311 87.9525 12.2632 88.2831C11.798 88.6119 11.4549 89.0177 11.2341 89.5005C11.0088 89.9826 10.9221 90.5002 10.9742 91.0534C11.0262 91.6065 11.2082 92.1037 11.52 92.545Z" fill="white"/>
<path d="M8.22862 87.2172L7.60547 87.5322L5.82782 84.0156L6.45097 83.7006L7.17349 85.1299L12.9605 82.2046L13.2909 82.8582L7.5039 85.7835L8.22862 87.2172Z" fill="white"/>
<path d="M4.5039 81.1797L4.0114 79.8365C3.72901 79.0663 3.57212 78.5344 3.54075 78.2408C3.4943 77.821 3.57447 77.4345 3.78128 77.0813C3.98503 76.7292 4.31001 76.4713 4.75623 76.3077C5.20549 76.143 5.62053 76.1261 6.00134 76.2569C6.37909 76.3888 6.69515 76.6456 6.94953 77.0273C7.13494 77.3061 7.38117 77.8641 7.68821 78.7016L7.86471 79.1829L11.0004 78.0332L11.2475 78.7071L4.5039 81.1797ZM4.91238 80.2654L7.20456 79.425L6.79977 78.2784C6.63056 77.8169 6.46547 77.4943 6.30451 77.3107C6.14049 77.1281 5.94286 77.0099 5.7116 76.956C5.47729 76.9032 5.244 76.9194 5.01172 77.0046C4.78556 77.0875 4.60168 77.2243 4.46007 77.4149C4.31541 77.6066 4.24032 77.8179 4.23482 78.0487C4.2282 78.2765 4.30837 78.6181 4.47534 79.0735L4.91238 80.2654Z" fill="white"/>
<path d="M2.08593 74.1494L1.17066 70.1363L1.86094 69.9788L2.61661 73.2922L4.80648 72.7927L4.05731 69.5079L4.74284 69.3516L5.492 72.6364L8.23885 72.0099L7.48969 68.7251L8.17997 68.5677L9.08873 72.5523L2.08593 74.1494Z" fill="white"/>
<path d="M1.37781 67.5706L0.683593 67.6455L0.260861 63.7278L0.955073 63.6529L1.12689 65.2452L7.57384 64.5496L7.65242 65.2778L1.20546 65.9734L1.37781 67.5706Z" fill="white"/>
<path d="M0 60.5371L0.0153833 59.8195L3.09573 59.8855L3.10682 59.3681C3.12699 58.4275 3.18702 57.7532 3.28694 57.3451C3.38685 56.937 3.60385 56.6112 3.93792 56.3676C4.26874 56.124 4.69288 56.0077 5.21034 56.0188C5.71803 56.0297 6.13687 56.1608 6.46685 56.4121C6.79357 56.6633 7.00495 56.9787 7.101 57.3585C7.1938 57.7382 7.23067 58.3722 7.21163 59.2607L7.18097 60.691L0 60.5371ZM6.50315 59.9586L6.51958 59.1922C6.53688 58.385 6.51072 57.8586 6.4411 57.613C6.3683 57.3639 6.22929 57.1656 6.02407 57.0179C5.81893 56.867 5.55363 56.7881 5.22818 56.7811C4.87019 56.7734 4.57697 56.8583 4.3485 57.0358C4.12004 57.2132 3.97836 57.443 3.92347 57.725C3.8654 58.0038 3.82813 58.5272 3.81167 59.2953L3.79869 59.9006L6.50315 59.9586Z" fill="white"/>
<path d="M1.01172 47.8936L1.33672 46.5153C1.46747 45.9609 1.63449 45.5504 1.83779 45.284C2.03792 45.0168 2.2944 44.8298 2.60722 44.723C2.92078 44.613 3.2439 44.5972 3.57658 44.6756C3.88707 44.7488 4.1527 44.8918 4.37347 45.1044C4.59108 45.3162 4.74434 45.5881 4.83327 45.9201C5.04276 45.5849 5.25462 45.3389 5.46886 45.1821C5.67994 45.0245 5.91699 44.9198 6.18001 44.8681C6.44062 44.8125 6.70874 44.8172 6.98439 44.8822C7.54518 45.0145 7.97186 45.3325 8.26443 45.8363C8.55459 46.3361 8.61823 46.9314 8.45535 47.6221L8.00259 49.5421L1.01172 47.8936ZM1.85745 47.3706L4.09586 47.8984L4.19 47.4992C4.30431 47.0145 4.34401 46.6476 4.30909 46.3985C4.271 46.1488 4.17101 45.9345 4.00913 45.7559C3.84407 45.5765 3.64273 45.4588 3.40511 45.4028C3.08511 45.3273 2.80829 45.3807 2.57465 45.5631C2.33859 45.7416 2.16303 46.0747 2.04797 46.5627L1.85745 47.3706ZM4.79923 48.0643L7.47962 48.6964L7.68358 47.8314C7.80387 47.3213 7.84292 46.9359 7.80074 46.6751C7.75539 46.4136 7.64339 46.1865 7.46473 45.9938C7.28682 45.798 7.0743 45.671 6.82718 45.6127C6.51668 45.5395 6.22188 45.577 5.94278 45.7253C5.66368 45.8735 5.43951 46.1149 5.27029 46.4496C5.15723 46.6738 5.03121 47.0805 4.89225 47.6698L4.79923 48.0643Z" fill="white"/>
<path d="M6.54912 34.9304L6.73944 35.6185C6.24502 35.7555 5.81882 35.9886 5.46083 36.3178C5.10105 36.6427 4.82284 37.0481 4.62621 37.5339C4.41127 38.065 4.34044 38.6087 4.41373 39.1651C4.484 39.7204 4.6842 40.2105 5.01433 40.6356C5.34266 41.0564 5.77537 41.3756 6.31248 41.5929C7.12416 41.9215 7.91393 41.918 8.68178 41.5827C9.45086 41.2443 10.007 40.6511 10.3502 39.8032C10.7275 38.8708 10.6781 37.9431 10.2019 37.0199L10.8127 36.6561C11.1008 37.159 11.2603 37.7064 11.2911 38.2983C11.3202 38.886 11.2107 39.4861 10.9628 40.0986C10.4914 41.2633 9.73178 42.0252 8.68395 42.3842C7.80079 42.6835 6.89604 42.6456 5.96969 42.2707C4.99506 41.8762 4.31383 41.2037 3.92601 40.253C3.53639 39.2982 3.54981 38.3063 3.96626 37.2773C4.21784 36.6558 4.56872 36.1446 5.01888 35.7438C5.46602 35.3419 5.9761 35.0707 6.54912 34.9304Z" fill="white"/>
<path d="M7.13672 30.8203L9.26257 27.2956L9.86885 27.6612L8.11369 30.5713L10.0371 31.7313L11.7771 28.8463L12.3792 29.2094L10.6391 32.0945L13.0517 33.5495L14.7917 30.6645L15.398 31.0302L13.2873 34.5298L7.13672 30.8203Z" fill="white"/>
<path d="M20 19.5C20 20.3284 19.3284 21 18.5 21C17.6716 21 17 20.3284 17 19.5C17 18.6716 17.6716 18 18.5 18C19.3284 18 20 18.6716 20 19.5Z" fill="white"/>
<path d="M112 46.5C112 47.3284 111.328 48 110.5 48C109.672 48 109 47.3284 109 46.5C109 45.6716 109.672 45 110.5 45C111.328 45 112 45.6716 112 46.5Z" fill="white"/>
<path d="M45 110.5C45 111.328 44.3284 112 43.5 112C42.6716 112 42 111.328 42 110.5C42 109.672 42.6716 109 43.5 109C44.3284 109 45 109.672 45 110.5Z" fill="white"/>
</svg>
