<svg xmlns="http://www.w3.org/2000/svg" xmlns:xlink="http://www.w3.org/1999/xlink"><symbol id="shape-check" viewBox="0 0 9 7"><path d="M8.5.897L7.602 0 3.316 4.285 1.398 2.367.5 3.265 3.316 6.08 8.5.897z"/></symbol><symbol id="shape-chevron" viewBox="0 0 9 6"><path d="M4.45 5.693L.207 1.45.914.743 4.45 4.28 7.985.743l.707.707L4.45 5.693z"/></symbol><symbol id="shape-close" viewBox="0 0 38 38"><path class="line" d="M10.5 9l18.385 18.385-1.414 1.414L9.086 10.414z"/><path class="line" d="M28.8 10.5L10.415 28.885 9.001 27.47 27.386 9.086z"/></symbol><symbol id="shape-minus" viewBox="0 0 13 1"><path d="M13 0v1H0V0z"/></symbol><symbol id="shape-plus" viewBox="0 0 13 13"><path d="M6 0h1v13H6V0z"/><path d="M13 6v1H0V6h13z"/></symbol> <view id="shape-check-view-dark" viewBox="0 0 9 7" preserveAspectRatio="none"/><view id="shape-check-view-green" viewBox="0 17 9 7" preserveAspectRatio="none"/><view id="shape-chevron-view-dark" viewBox="0 34 9 6" preserveAspectRatio="none"/><view id="shape-chevron-view-green" viewBox="0 50 9 6" preserveAspectRatio="none"/><view id="shape-close-view-dark" viewBox="0 66 38 38" preserveAspectRatio="none"/><view id="shape-close-view-green" viewBox="0 114 38 38" preserveAspectRatio="none"/><view id="shape-minus-view-dark" viewBox="0 162 13 1" preserveAspectRatio="none"/><view id="shape-minus-view-green" viewBox="0 173 13 1" preserveAspectRatio="none"/><view id="shape-plus-view-dark" viewBox="0 184 13 13" preserveAspectRatio="none"/><view id="shape-plus-view-green" viewBox="0 207 13 13" preserveAspectRatio="none"/> <use xlink:href="#shape-check" x="0" y="0" width="9" height="7" style="fill:#000000"/><use xlink:href="#shape-check" x="0" y="17" width="9" height="7" style="fill:#3CFFB9"/><use xlink:href="#shape-chevron" x="0" y="34" width="9" height="6" style="fill:#000000"/><use xlink:href="#shape-chevron" x="0" y="50" width="9" height="6" style="fill:#3CFFB9"/><use xlink:href="#shape-close" x="0" y="66" width="38" height="38" style="fill:#000000"/><use xlink:href="#shape-close" x="0" y="114" width="38" height="38" style="fill:#3CFFB9"/><use xlink:href="#shape-minus" x="0" y="162" width="13" height="1" style="fill:#000000"/><use xlink:href="#shape-minus" x="0" y="173" width="13" height="1" style="fill:#3CFFB9"/><use xlink:href="#shape-plus" x="0" y="184" width="13" height="13" style="fill:#000000"/><use xlink:href="#shape-plus" x="0" y="207" width="13" height="13" style="fill:#3CFFB9"/></svg>