<svg xmlns="http://www.w3.org/2000/svg" xmlns:xlink="http://www.w3.org/1999/xlink"><symbol id="shape-check" viewBox="0 0 9 7"><path d="M8.5.897L7.602 0 3.316 4.285 1.398 2.367.5 3.265 3.316 6.08 8.5.897z"/></symbol><symbol id="shape-chevron" viewBox="0 0 9 6"><path d="M4.45 5.693L.207 1.45.914.743 4.45 4.28 7.985.743l.707.707L4.45 5.693z"/></symbol><symbol id="shape-close" viewBox="0 0 38 38"><path class="line" d="M10.5 9l18.385 18.385-1.414 1.414L9.086 10.414z"/><path class="line" d="M28.8 10.5L10.415 28.885 9.001 27.47 27.386 9.086z"/></symbol><symbol id="shape-minus" viewBox="0 0 13 1"><path d="M13 0v1H0V0z"/></symbol><symbol id="shape-plus" viewBox="0 0 13 13"><path d="M6 0h1v13H6V0z"/><path d="M13 6v1H0V6h13z"/></symbol><symbol id="shape-zoom" viewBox="0 0 17 21"><path fill-rule="evenodd" clip-rule="evenodd" d="M16.721 20.84c-.555.46-1.084-.223-1.084-.223l-3.21-4.642a8.072 8.072 0 01-4.128 1.131C3.715 17.106 0 13.277 0 8.553S3.715 0 8.299 0c4.583 0 8.299 3.83 8.299 8.553a8.642 8.642 0 01-2.96 6.548l3.207 4.75s.408.549-.124.99zM15.204 8.553c0-3.93-3.092-7.117-6.905-7.117-3.814 0-6.906 3.187-6.906 7.117S4.485 15.67 8.3 15.67c3.813 0 6.905-3.186 6.905-7.117z"/></symbol> <view id="shape-check-view-dark" viewBox="0 0 9 7" preserveAspectRatio="none"/><view id="shape-check-view-green" viewBox="0 17 9 7" preserveAspectRatio="none"/><view id="shape-chevron-view-dark" viewBox="0 34 9 6" preserveAspectRatio="none"/><view id="shape-chevron-view-green" viewBox="0 50 9 6" preserveAspectRatio="none"/><view id="shape-close-view-dark" viewBox="0 66 38 38" preserveAspectRatio="none"/><view id="shape-close-view-green" viewBox="0 114 38 38" preserveAspectRatio="none"/><view id="shape-minus-view-dark" viewBox="0 162 13 1" preserveAspectRatio="none"/><view id="shape-minus-view-green" viewBox="0 173 13 1" preserveAspectRatio="none"/><view id="shape-plus-view-dark" viewBox="0 184 13 13" preserveAspectRatio="none"/><view id="shape-plus-view-green" viewBox="0 207 13 13" preserveAspectRatio="none"/><view id="shape-zoom-view-dark" viewBox="0 230 17 21" preserveAspectRatio="none"/><view id="shape-zoom-view-green" viewBox="0 261 17 21" preserveAspectRatio="none"/> <use xlink:href="#shape-check" x="0" y="0" width="9" height="7" style="fill:#000000"/><use xlink:href="#shape-check" x="0" y="17" width="9" height="7" style="fill:#3CFFB9"/><use xlink:href="#shape-chevron" x="0" y="34" width="9" height="6" style="fill:#000000"/><use xlink:href="#shape-chevron" x="0" y="50" width="9" height="6" style="fill:#3CFFB9"/><use xlink:href="#shape-close" x="0" y="66" width="38" height="38" style="fill:#000000"/><use xlink:href="#shape-close" x="0" y="114" width="38" height="38" style="fill:#3CFFB9"/><use xlink:href="#shape-minus" x="0" y="162" width="13" height="1" style="fill:#000000"/><use xlink:href="#shape-minus" x="0" y="173" width="13" height="1" style="fill:#3CFFB9"/><use xlink:href="#shape-plus" x="0" y="184" width="13" height="13" style="fill:#000000"/><use xlink:href="#shape-plus" x="0" y="207" width="13" height="13" style="fill:#3CFFB9"/><use xlink:href="#shape-zoom" x="0" y="230" width="17" height="21" style="fill:#000000"/><use xlink:href="#shape-zoom" x="0" y="261" width="17" height="21" style="fill:#3CFFB9"/></svg>