<svg xmlns="http://www.w3.org/2000/svg" xmlns:xlink="http://www.w3.org/1999/xlink"><symbol id="shape-check" viewBox="0 0 9 7"><path d="M8.5.897L7.602 0 3.316 4.285 1.398 2.367.5 3.265 3.316 6.08 8.5.897z"/></symbol><symbol id="shape-close" viewBox="0 0 24 24"><path d="M18.7 17.3c.4.4.4 1 0 1.4-.2.2-.4.3-.7.3-.3 0-.5-.1-.7-.3L12 13.4l-5.3 5.3c-.2.2-.4.3-.7.3-.3 0-.5-.1-.7-.3-.4-.4-.4-1 0-1.4l5.3-5.3-5.3-5.3c-.4-.4-.4-1 0-1.4.4-.4 1-.4 1.4 0l5.3 5.3 5.3-5.3c.4-.4 1-.4 1.4 0 .4.4.4 1 0 1.4L13.4 12l5.3 5.3z"/></symbol><symbol id="shape-minus" viewBox="0 0 13 1"><path d="M13 0v1H0V0z"/></symbol><symbol id="shape-plus" viewBox="0 0 13 13"><path d="M6 0h1v13H6V0z"/><path d="M13 6v1H0V6h13z"/></symbol> <view id="shape-check-view-dark" viewBox="0 0 9 7" preserveAspectRatio="none"/><view id="shape-check-view-green" viewBox="0 17 9 7" preserveAspectRatio="none"/><view id="shape-close-view-dark" viewBox="0 34 24 24" preserveAspectRatio="none"/><view id="shape-close-view-green" viewBox="0 68 24 24" preserveAspectRatio="none"/><view id="shape-minus-view-dark" viewBox="0 102 13 1" preserveAspectRatio="none"/><view id="shape-minus-view-green" viewBox="0 113 13 1" preserveAspectRatio="none"/><view id="shape-plus-view-dark" viewBox="0 124 13 13" preserveAspectRatio="none"/><view id="shape-plus-view-green" viewBox="0 147 13 13" preserveAspectRatio="none"/> <use xlink:href="#shape-check" x="0" y="0" width="9" height="7" style="fill:#000000"/><use xlink:href="#shape-check" x="0" y="17" width="9" height="7" style="fill:#3CFFB9"/><use xlink:href="#shape-close" x="0" y="34" width="24" height="24" style="fill:#000000"/><use xlink:href="#shape-close" x="0" y="68" width="24" height="24" style="fill:#3CFFB9"/><use xlink:href="#shape-minus" x="0" y="102" width="13" height="1" style="fill:#000000"/><use xlink:href="#shape-minus" x="0" y="113" width="13" height="1" style="fill:#3CFFB9"/><use xlink:href="#shape-plus" x="0" y="124" width="13" height="13" style="fill:#000000"/><use xlink:href="#shape-plus" x="0" y="147" width="13" height="13" style="fill:#3CFFB9"/></svg>