<svg width="194" height="53" viewBox="0 0 194 53" fill="none" xmlns="http://www.w3.org/2000/svg">
<path fill-rule="evenodd" clip-rule="evenodd" d="M189.425 39.1304V14.4549H194V39.1304H189.425ZM175.362 39.3018C168.96 39.3018 164.349 35.7427 164.349 30.0485C164.349 24.3541 164.349 14.4549 164.349 14.4549H168.755C168.755 14.4549 168.755 25.6834 168.755 29.363C168.755 33.0425 172.166 34.8464 175.193 34.8464C178.22 34.8464 181.631 33.1815 181.631 29.7056C181.631 26.2299 181.631 14.4549 181.631 14.4549H186.037C186.037 14.4549 186.037 24.8784 186.037 30.0485C186.037 35.2184 181.765 39.3018 175.362 39.3018ZM152.997 37.4168C151.813 35.417 143.98 21.7975 142.662 19.4243C142.494 19.1227 142.323 19.2007 142.323 19.4243C142.323 19.6478 142.351 39.0791 142.351 39.0791L138.087 39.1304C138.087 39.1304 138.087 18.3615 138.087 17.0252C138.087 15.6889 139.516 14.3963 140.798 14.2835C142.08 14.1708 144.257 14.3779 145.204 15.9971C146.15 17.6162 156.047 34.5037 156.047 34.5037V14.4549H160.622C160.622 14.4549 160.622 33.9212 160.622 35.1892C160.622 36.4571 160.429 38.0459 158.589 38.959C157.107 39.6945 154.182 39.4165 152.997 37.4168ZM117.421 36.0658C117.447 36.0657 117.368 14.4717 117.368 14.4717H121.64C121.64 14.4717 121.652 33.2754 121.652 34.5037C121.652 35.0942 121.741 35.1892 122.5 35.1892C123.258 35.1892 134.699 35.1892 134.699 35.1892V39.1304C134.699 39.1304 122.904 39.1304 120.636 39.1304C118.45 39.1304 117.488 37.7597 117.421 36.0658ZM117.421 36.0658C117.42 36.0658 117.419 36.038 117.418 35.9781C117.418 36.0075 117.42 36.0367 117.421 36.0658ZM102.392 38.9784C95.7927 38.9784 90.443 33.5936 90.443 26.951C90.443 20.3084 95.7927 14.9237 102.392 14.9237C108.991 14.9237 114.341 20.3084 114.341 26.951C114.341 33.5936 108.991 38.9784 102.392 38.9784ZM102.392 18.6814C97.8544 18.6814 94.1761 22.3838 94.1761 26.951C94.1761 31.5183 97.8544 35.2207 102.392 35.2207C106.929 35.2207 110.608 31.5183 110.608 26.951C110.608 22.3838 106.929 18.6814 102.392 18.6814ZM76.9806 39.0791C74.6349 39.0791 72.7499 38.1671 71.8027 35.694C70.8556 33.2209 63.5181 14.4717 63.5181 14.4717H68.3077C68.3077 14.4717 75.2219 32.2419 75.7362 33.6469C76.3375 35.2892 77.6697 35.3887 78.2777 33.6469C78.7744 32.2239 85.524 14.4717 85.524 14.4717H90.0546C90.0546 14.4717 83.2819 32.3052 82.029 35.5638C80.9446 38.384 79.3263 39.0791 76.9806 39.0791ZM49.8132 32.6188C48.2884 39.4497 42.3664 45.4621 38.2917 48.041C34.2977 50.5688 25.7892 52.6314 18.6376 50.6113C16.6614 52.3852 13.2104 53.9345 10.3354 52.3249C7.5382 50.7591 7.38274 48.113 7.4551 44.0997C2.63543 39.0819 0.0103849 32.3931 2.92013e-05 25.5931C-0.0103265 18.7755 2.73393 12.1737 7.79386 7.25788C8.02143 4.97108 8.26802 2.18822 10.3354 0.917615C12.4027 -0.35312 14.7182 -0.363276 17.9598 1.2603C25.9339 -0.76624 32.4209 0.628966 37.9529 3.65933C43.4848 6.68957 48.1544 12.9244 49.8132 19.4243C52.6553 20.7276 55.6766 23.0516 55.5738 25.9359C55.4711 28.82 53.3628 30.9421 49.8132 32.6188ZM43.5441 17.8821C41.2395 16.4495 20.0849 4.41305 16.7738 2.63116C15.0676 1.713 12.7259 1.15184 11.1825 2.45982C9.63925 3.76779 9.48909 5.69485 9.48818 7.25788C9.48637 10.4824 9.31874 15.1723 9.31874 21.3092C18.3242 16.054 24.2416 23.4617 34.903 27.1354C37.8086 28.1365 42.9042 27.8018 44.5607 25.2504C46.0901 22.8947 45.5572 19.1333 43.5441 17.8821ZM49.6437 21.3092C49.5035 23.3906 49.2 27.5769 44.8996 29.8771C40.0873 32.451 34.5589 31.6697 30.8367 30.0485C27.1144 28.4272 21.8785 25.6782 17.7903 24.0509C13.7023 22.4235 9.31874 26.1424 9.31874 29.363C9.31874 32.5835 9.07292 39.3488 9.14942 44.9566C9.1845 47.5402 8.88833 49.7305 11.1825 50.954C13.4767 52.1776 15.7092 50.5047 17.9598 49.2405C21.5994 47.1961 44.8416 33.6783 49.1354 31.0765C51.3613 29.7278 53.0603 28.6467 53.5548 27.311C54.3915 25.0512 52.5898 22.6662 49.6437 21.3092Z" fill="#3CFFB9"/>
</svg>
